PathFileType	4	(X/Y/Z)	C:\Users\WrightLab\Desktop\Jo\P3_12.trc
DataRate	CameraRate	NumFrames	NumMarkers	Units	OrigDataRate	OrigDataStartFrame	OrigNumFrames
100.00	100.00	       19	19	mm	100.00	75	       593
Frame#	Time	Headset_Front			Headset_Back			Headset_Left			Headset_Right			Left_Shoulder			Right_Shoulder			Sternum			C7			Left Elbow			Right Elbow			Left Wrist			Right Wrist			Left ASIS			Right ASIS			S2			Left Knee			Right Knee			Left Ankle			Right Ankle			
		X1	Y1	Z1	X2	Y2	Z2	X3	Y3	Z3	X4	Y4	Z4	X5	Y5	Z5	X6	Y6	Z6	X7	Y7	Z7	X8	Y8	Z8	X9	Y9	Z9	X10	Y10	Z10	X11	Y11	Z11	X12	Y12	Z12	X13	Y13	Z13	X14	Y14	Z14	X15	Y15	Z15	X16	Y16	Z16	X17	Y17	Z17	X18	Y18	Z18	X19	Y19	Z19	

75	0.740				-64.47521	1667.45081	2055.29077	-193.56096	1593.66284	1985.02124				-253.97040	1373.59412	2023.65051	92.29443	1395.64502	2099.59326				-92.87054	1439.19873	2116.74194	-339.41870	1080.01184	1906.40198	182.44794	1054.66272	2133.29468	-327.73880	967.15564	1731.35376	199.22607	882.40881	1981.09387	-149.66418	906.02679	1952.26306				-72.92888	986.63031	2185.34351	-157.81497	485.33688	2012.46423	106.29169	488.27377	1956.49219	-146.19485	159.99977	2080.55762	76.33428	275.55130	2220.16113	
76	0.750				-64.74353	1668.09485	2048.13721	-193.29356	1593.19409	1976.62317				-253.75006	1373.81348	2015.67188	92.23628	1395.66663	2092.18384				-93.13015	1439.23584	2109.08032	-339.78900	1080.88831	1898.28149	181.82664	1055.20947	2127.22900	-328.41278	968.37000	1721.35364	199.78703	883.65710	1974.44275	-149.60941	905.88019	1944.39697				-72.94118	986.84003	2178.52856	-157.66765	485.16693	2010.27673	108.23228	490.59714	1944.16162	-146.24303	160.05560	2079.96655	76.33103	270.53088	2198.45630	
77	0.760				-64.87421	1668.08386	2039.82422	-193.79800	1593.35303	1969.16650				-253.24355	1374.34302	2009.62683	91.66123	1396.26379	2086.30273				-93.37921	1439.14355	2102.13354	-339.95035	1081.72791	1888.46472	181.41650	1055.10498	2120.31079	-329.50430	968.59949	1713.46484	200.78362	885.00159	1967.14197	-149.50102	905.12048	1939.66907				-73.09942	986.92590	2171.18018	-157.71005	485.94537	2008.03955	109.28120	494.21176	1929.32629	-146.10918	160.18526	2079.32983	78.09955	266.05704	2179.49170	
78	0.770				-64.71253	1668.00037	2031.30054	-193.44434	1593.10986	1961.35059				-252.97649	1373.95654	2001.15527	91.87303	1396.35120	2080.24365				-93.35942	1439.34351	2094.58960	-339.79843	1082.45825	1879.92932	182.19652	1055.48608	2114.82788	-330.30783	970.30157	1703.62366	201.70451	885.46411	1962.88782	-149.18375	903.62213	1931.51257				-72.92386	986.59430	2164.65283	-157.00650	484.87811	2004.53235	111.14645	496.90604	1916.13403	-145.95543	160.34087	2078.67383	80.09661	259.15155	2156.64502	
79	0.780				-64.77012	1668.00220	2023.92139	-192.76604	1593.17310	1953.14355				-252.35674	1373.62024	1992.61548	91.88632	1396.52441	2072.87646				-93.12123	1439.20947	2086.96094	-339.60287	1083.00806	1871.92102	181.93066	1055.22070	2108.53198	-330.88354	970.00995	1694.96863	202.41264	886.20471	1955.36096	-149.06470	903.24719	1926.47266				-72.42017	986.88293	2158.45239	-156.29817	483.78302	2000.93799	112.65804	499.64340	1902.24084	-145.39690	160.55457	2077.80078	81.55609	253.41946	2135.63306	
80	0.790				-64.36829	1668.34216	2015.75256	-192.98019	1593.04773	1945.68542				-251.56824	1373.58472	1985.80505	91.70737	1395.97644	2065.77368				-92.76746	1438.83228	2078.92334	-339.61353	1083.57288	1862.40186	181.60565	1055.72424	2102.52954	-331.42715	971.34509	1685.48621	203.31789	887.02423	1947.54736	-148.47609	901.68652	1919.18127				-72.32053	986.38867	2151.67212	-155.48569	483.67679	1999.26111	114.10722	502.85074	1888.85095	-144.78171	160.45879	2076.77612	83.46213	246.36182	2111.20752	
81	0.800				-63.73483	1668.37097	2008.40942	-192.60983	1592.03284	1937.78577				-251.52780	1373.50647	1977.38879	92.14052	1395.94971	2059.01782				-92.86777	1438.88855	2071.53027	-339.72180	1084.09717	1853.27588	182.65233	1055.22949	2096.56494	-332.23358	971.00867	1677.38684	204.03178	887.67700	1940.05371	-147.84261	900.55786	1913.58875				-71.73000	986.07928	2144.99463	-154.49512	482.54630	1995.47473	115.77691	505.47110	1876.73523	-144.04471	160.53819	2075.90967	86.38096	238.98660	2086.88525	
82	0.810				-63.41077	1667.82922	1999.71118	-191.96553	1591.80518	1930.82263				-250.92598	1373.08691	1970.11768	92.13844	1395.60803	2052.38647				-92.58138	1438.37744	2063.99194	-339.42535	1084.24402	1844.36279	182.42076	1055.05725	2089.95532	-332.53574	972.07501	1669.94507	205.14903	887.64899	1935.04114	-147.37277	900.53558	1903.86035				-71.14734	985.29535	2138.04688	-153.21854	481.61755	1994.08765	117.57426	507.65738	1864.35034	-143.02234	160.55560	2075.00928	90.11919	231.89813	2064.60059	
83	0.820				-63.46549	1666.46655	1992.21533	-191.18858	1591.00122	1921.79443				-249.68539	1372.33044	1962.29797	92.72953	1394.64319	2044.20422				-91.85631	1437.79785	2056.35010	-339.18015	1084.62817	1836.43762	182.79634	1054.97229	2085.05786	-332.98474	971.94171	1658.70935	206.29086	887.47693	1926.67102	-146.75716	898.26801	1898.93640				-70.73127	984.81598	2131.32300	-152.66588	480.89902	1991.76343	118.82008	509.81183	1852.83862	-142.70131	160.61063	2074.22266	93.60387	223.94991	2038.37061	
84	0.830				-62.26803	1665.94800	1984.22339	-191.15063	1589.84937	1914.40369				-249.45493	1371.84155	1953.69360	93.06870	1394.08960	2036.72705				-91.80262	1437.19751	2048.85938	-339.41733	1084.48669	1827.39795	183.77214	1054.15125	2077.56665	-333.22949	972.24310	1649.55701	207.19577	888.26379	1920.76465	-146.20953	897.38940	1892.62915				-69.87686	984.64862	2125.05493	-151.32135	480.76410	1987.80811	120.50353	511.83444	1842.20605	-142.15851	160.56593	2073.52661	97.18187	217.25771	2013.71252	
85	0.840				-61.50009	1665.58643	1976.36829	-190.40808	1589.96875	1907.67871				-248.14052	1371.23535	1945.80212	93.77505	1393.29297	2029.62500				-91.43526	1436.36414	2040.86743	-339.11774	1084.49487	1818.81726	184.08755	1054.17017	2071.62183	-333.95947	971.90582	1642.63208	208.38489	887.84778	1912.94214	-145.36658	895.53070	1886.62292				-69.23380	983.47363	2117.12061	-150.88605	480.20871	1984.55054	121.52752	513.26343	1830.47705	-142.13158	160.15247	2071.12500	101.00248	210.27397	1988.20581	
86	0.850				-61.24903	1664.13062	1968.37488	-190.13745	1588.94788	1899.45227				-247.67711	1370.51013	1938.20288	94.57308	1392.10254	2022.05151				-90.61483	1435.99536	2033.60400	-338.82541	1084.09692	1810.60120	185.03123	1053.17664	2065.55688	-334.28366	971.43683	1632.57458	209.95726	887.22760	1906.56555	-144.14182	894.19000	1880.08984				-68.06998	983.49005	2111.03125	-150.81125	479.61725	1982.72205	122.80783	514.37439	1821.66064	-142.06932	160.64560	2072.32715	105.06663	201.69865	1960.89050	
87	0.860				-60.88972	1663.42749	1960.21460	-189.13466	1587.05688	1890.53113				-246.70238	1369.47327	1929.51538	95.29531	1391.05029	2013.14819				-89.90195	1435.03052	2025.30933	-339.01007	1083.95886	1801.82507	185.96947	1051.19128	2057.66699	-334.78094	972.36639	1624.77478	211.39890	887.32733	1898.56726	-143.35063	893.90851	1872.67822				-67.46641	982.18231	2103.37427	-150.44350	479.39862	1981.68762	124.00465	514.55219	1810.82751	-142.01514	160.47859	2070.68457	109.87921	195.55493	1935.22461	
88	0.870				-60.43463	1662.96948	1954.02173	-188.28030	1586.52832	1883.66028				-245.42532	1368.24182	1922.18982	95.90144	1390.40173	2006.04541				-88.85788	1433.54639	2016.89050	-338.34396	1083.27869	1793.37744	186.90387	1051.43091	2052.77637	-335.43509	970.66754	1615.54102	213.17764	885.87616	1893.34827	-142.52579	892.76184	1865.02197				-65.94641	981.36041	2096.11816	-150.19441	479.40472	1979.41199	125.25971	515.05402	1804.24622	-142.12901	161.22704	2071.82642	115.40442	190.19400	1909.50134	
89	0.880				-59.24157	1661.59766	1944.77368	-187.67294	1584.79517	1874.45239				-244.59604	1366.98975	1912.90991	96.87635	1389.38000	1998.74146				-87.81017	1433.15405	2009.86023	-337.80298	1082.90540	1784.91443	187.86891	1049.82849	2044.58875	-335.71576	971.67664	1608.15259	215.13470	885.35876	1886.66113	-141.72522	891.62585	1858.44592				-64.99092	980.25909	2088.67847	-150.26958	479.20557	1976.38684	126.75979	514.96692	1795.46350	-142.05511	161.55945	2071.58374	119.25167	184.24239	1882.17737	
90	0.890				-58.83672	1660.74255	1936.36365	-186.75659	1584.13733	1867.30811				-243.16153	1366.42944	1906.16760	97.68982	1387.97607	1990.08093				-87.14705	1432.12732	2001.96826	-337.65009	1082.39233	1776.94067	188.98560	1049.66174	2039.22534	-335.88303	970.53125	1599.74719	216.89542	883.92615	1879.83081	-140.37576	890.45953	1851.78357				-63.49731	979.15216	2081.53027	-149.88495	478.28836	1974.93665	128.04095	513.25195	1786.91357	-142.10269	161.72629	2071.11157	124.63684	179.09784	1856.38489	
91	0.900				-57.64238	1659.54016	1928.65161	-185.77394	1582.52307	1859.34900				-242.38274	1364.93762	1897.17249	99.01698	1387.10168	1982.11841				-85.96854	1430.90247	1993.57935	-337.13147	1081.11328	1769.01941	189.92516	1048.63513	2031.49036	-336.15887	969.81805	1590.73975	218.76624	884.22906	1871.31616	-139.53452	889.58875	1842.31799				-61.90100	978.14899	2073.40381	-150.47346	478.34723	1972.12878	128.78302	512.40179	1780.67639	-141.98747	162.06145	2070.70801	129.89700	175.31277	1829.02429	
92	0.910				-56.61354	1658.05957	1920.16479	-184.99275	1581.10901	1850.58472				-240.86766	1363.93433	1890.34021	100.18272	1385.84204	1974.44055				-84.65733	1429.91260	1986.48425	-336.54248	1080.81787	1760.20178	191.36099	1047.58789	2025.20801	-336.37079	968.90057	1582.78857	222.47949	883.75861	1862.00537	-139.09029	888.46185	1838.93665				-60.29780	977.09174	2066.44165	-150.26068	477.74213	1971.16919	130.09380	511.04517	1775.64648	-141.89485	162.25386	2070.23682	133.72401	172.50885	1803.55652	
93	0.920				-56.11266	1656.31250	1911.74121	-183.99930	1579.47461	1843.74597				-239.84917	1362.53442	1880.91455	101.60464	1384.16711	1964.93262				-83.70256	1428.50964	1977.90881	-336.12720	1079.64880	1752.06824	193.03568	1046.28308	2016.46252	-336.94067	968.39374	1574.25024	224.58504	882.76416	1854.67444	-138.22260	887.03387	1831.30310				-58.53036	975.81036	2058.24170	-150.68321	477.78525	1965.26135	130.06641	509.01038	1767.41626	-143.41127	161.75452	2073.64673	138.40724	170.12657	1777.30200	
